<svg xmlns="http://www.w3.org/2000/svg" xmlns:xlink="http://www.w3.org/1999/xlink" width="130" height="130" viewBox="0 0 130 130"><defs><filter id="a" x="0" y="0" width="130" height="130" filterUnits="userSpaceOnUse"><feOffset dx="3" dy="10" input="SourceAlpha"/><feGaussianBlur stdDeviation="10" result="b"/><feFlood flood-opacity="0.161"/><feComposite operator="in" in2="b"/><feComposite in="SourceGraphic"/></filter></defs><g transform="translate(27 20)"><g transform="matrix(1, 0, 0, 1, -27, -20)" filter="url(#a)"><circle cx="35" cy="35" r="35" transform="translate(27 20)" fill="#1e90ff"/></g><path d="M14.931,5.895l-2.6-3.1L3,10.6l2.618,3.1,9.314-7.812Zm28.651,4.728L34.248,2.79l-2.618,3.1,9.334,7.832ZM23.291,7.132A18.262,18.262,0,1,0,41.553,25.394,18.264,18.264,0,0,0,23.291,7.132Zm0,32.466a14.2,14.2,0,1,1,14.2-14.2A14.193,14.193,0,0,1,23.291,39.6Zm2.029-22.32H21.262v6.087H15.175v4.058h6.087v6.087H25.32V27.423h6.087V23.365H25.32Z" transform="translate(11.423 11.623)" fill="#fff"/></g></svg>